<svg width="90" height="30" viewBox="0 0 90 30" fill="none" xmlns="http://www.w3.org/2000/svg">
<path fill-rule="evenodd" clip-rule="evenodd" d="M0 28.8966H6.57324L9.14163 15.0451H9.20782L13.7819 28.8966H20.1897L25.1941 1.23193H18.8261L16.357 14.9375H16.2908L11.6107 1.23193H4.9382L0 28.8966Z" fill="#CC1C28"/>
<path fill-rule="evenodd" clip-rule="evenodd" d="M32.5815 28.8966H38.7841L40.6243 18.8018L40.8163 18.6328L43.4575 28.8966H49.6269L47.0056 17.8031L53.6053 8.78382H46.2973L41.3856 15.652H41.1936L43.9341 1.23193H37.5197L32.5815 28.8966Z" fill="#CC1C28"/>
<path fill-rule="evenodd" clip-rule="evenodd" d="M70.7037 28.8955H76.9129L78.8458 18.2398C79.2496 16.1502 79.6269 14.7213 81.7253 14.7213C82.7977 14.7213 83.175 15.2206 83.0889 16.3576C83.0294 17.1643 82.6521 18.8468 82.427 20.0145L80.6463 28.8955H87.2659L89.3643 17.5407C89.6291 16.0657 89.8608 14.6444 89.9534 13.7533C90.3109 10.4114 88.5898 8.23724 85.4521 8.29101C82.6851 8.34479 81.4804 10.227 80.2293 12.0477H80.1631L80.6596 8.78269H74.2849L70.6772 28.8955H70.7037Z" fill="#CC1C28"/>
<path fill-rule="evenodd" clip-rule="evenodd" d="M27.4843 3.54425C27.4843 1.74654 29.1127 0.286865 31.1251 0.286865C33.1374 0.286865 34.7658 1.74654 34.7658 3.54425C34.7658 5.34195 33.1374 6.80162 31.1251 6.80162C29.1127 6.80162 27.4843 5.34195 27.4843 3.54425ZM23.4331 28.8965H29.6357L33.2433 8.78371H27.0408L23.4331 28.8965Z" fill="#CC1C28"/>
<path fill-rule="evenodd" clip-rule="evenodd" d="M58.1727 20.3624C58.7287 16.8515 59.2782 13.4942 61.6678 13.3944C63.283 13.3252 63.283 15.0691 62.8594 18.1882C62.6211 19.9091 61.7473 24.0193 59.7879 23.9732C57.8285 23.9271 57.9145 21.9603 58.1727 20.3624ZM51.1626 19.9859C50.5006 27.2766 55.4852 29.6044 59.8077 29.4047C67.5394 29.0359 69.5517 22.1678 70.26 17.1127C70.9948 11.8425 66.9966 8.03198 61.9194 8.03198C54.843 8.03198 51.7782 12.9257 51.1626 20.0167V19.9859Z" fill="#CC1C28"/>
</svg>
