<svg width="115" height="33" viewBox="0 0 115 33" fill="none" xmlns="http://www.w3.org/2000/svg">
<path d="M17.25 22.625V26H5.15625V22.625H17.25ZM6.46875 3.25V26H2.17188V3.25H6.46875ZM15.6719 12.6406V15.9375H5.15625V12.6406H15.6719ZM17.2031 3.25V6.64062H5.15625V3.25H17.2031ZM28.1406 14.625V17.8906H19.5938V14.625H28.1406ZM43.8906 20.0938C43.8906 19.6562 43.8229 19.2656 43.6875 18.9219C43.5625 18.5677 43.3281 18.25 42.9844 17.9688C42.651 17.6771 42.1771 17.3958 41.5625 17.125C40.9583 16.8438 40.1771 16.5521 39.2188 16.25C38.1562 15.9167 37.1667 15.5417 36.25 15.125C35.3333 14.7083 34.526 14.224 33.8281 13.6719C33.1406 13.1198 32.6042 12.4844 32.2188 11.7656C31.8333 11.0365 31.6406 10.1927 31.6406 9.23438C31.6406 8.29688 31.8385 7.44271 32.2344 6.67188C32.6406 5.90104 33.2135 5.23958 33.9531 4.6875C34.6927 4.125 35.5625 3.69271 36.5625 3.39062C37.5729 3.08854 38.6875 2.9375 39.9062 2.9375C41.5938 2.9375 43.0521 3.24479 44.2812 3.85938C45.5208 4.47396 46.4792 5.30729 47.1562 6.35938C47.8333 7.41146 48.1719 8.59375 48.1719 9.90625H43.8906C43.8906 9.19792 43.7396 8.57292 43.4375 8.03125C43.1458 7.48958 42.6979 7.0625 42.0938 6.75C41.5 6.4375 40.75 6.28125 39.8438 6.28125C38.9688 6.28125 38.2396 6.41146 37.6562 6.67188C37.0833 6.93229 36.651 7.28646 36.3594 7.73438C36.0781 8.18229 35.9375 8.68229 35.9375 9.23438C35.9375 9.65104 36.0365 10.026 36.2344 10.3594C36.4323 10.6823 36.7292 10.9896 37.125 11.2812C37.5208 11.5625 38.0104 11.8281 38.5938 12.0781C39.1875 12.3177 39.875 12.5573 40.6562 12.7969C41.9062 13.1719 43 13.5885 43.9375 14.0469C44.8854 14.5052 45.6719 15.026 46.2969 15.6094C46.9323 16.1927 47.4062 16.849 47.7188 17.5781C48.0417 18.3073 48.2031 19.1354 48.2031 20.0625C48.2031 21.0417 48.0104 21.9167 47.625 22.6875C47.2396 23.4583 46.6875 24.1146 45.9688 24.6562C45.25 25.1979 44.3854 25.6094 43.375 25.8906C42.375 26.1719 41.2552 26.3125 40.0156 26.3125C38.9115 26.3125 37.8177 26.1667 36.7344 25.875C35.6615 25.5729 34.6875 25.125 33.8125 24.5312C32.9375 23.9271 32.2396 23.1667 31.7188 22.25C31.1979 21.3229 30.9375 20.2396 30.9375 19H35.25C35.25 19.7188 35.3646 20.3333 35.5938 20.8438C35.8333 21.3438 36.1667 21.7552 36.5938 22.0781C37.0312 22.3906 37.5417 22.6198 38.125 22.7656C38.7083 22.9115 39.3385 22.9844 40.0156 22.9844C40.8906 22.9844 41.6094 22.8646 42.1719 22.625C42.7448 22.375 43.1719 22.0312 43.4531 21.5938C43.7448 21.1562 43.8906 20.6562 43.8906 20.0938ZM55.25 2V26H51.1094V2H55.25ZM54.5938 16.9375H53.375C53.375 15.7604 53.5312 14.6771 53.8438 13.6875C54.1562 12.6979 54.599 11.8385 55.1719 11.1094C55.7448 10.3698 56.4271 9.79688 57.2188 9.39062C58.0208 8.98438 58.9062 8.78125 59.875 8.78125C60.7083 8.78125 61.4635 8.90104 62.1406 9.14062C62.8281 9.36979 63.4167 9.73958 63.9062 10.25C64.3958 10.7604 64.7708 11.4271 65.0312 12.25C65.3021 13.0625 65.4375 14.0521 65.4375 15.2188V26H61.2812V15.1875C61.2812 14.4062 61.1667 13.7917 60.9375 13.3438C60.7083 12.8854 60.3802 12.5573 59.9531 12.3594C59.5365 12.1615 59.0208 12.0625 58.4062 12.0625C57.7396 12.0625 57.1667 12.1927 56.6875 12.4531C56.2083 12.7031 55.8125 13.0521 55.5 13.5C55.1979 13.9479 54.9688 14.4635 54.8125 15.0469C54.6667 15.6302 54.5938 16.2604 54.5938 16.9375Z" fill="#080808"/>
<path d="M103.984 11.3438V31.5H99.8438V8.09375H103.672L103.984 11.3438ZM114.844 16.375V16.7031C114.844 17.9323 114.698 19.0729 114.406 20.125C114.125 21.1667 113.708 22.0781 113.156 22.8594C112.604 23.6302 111.917 24.2344 111.094 24.6719C110.281 25.099 109.344 25.3125 108.281 25.3125C107.24 25.3125 106.333 25.1146 105.562 24.7188C104.792 24.3125 104.141 23.7396 103.609 23C103.078 22.2604 102.651 21.401 102.328 20.4219C102.016 19.4323 101.781 18.3542 101.625 17.1875V16.1406C101.781 14.901 102.016 13.776 102.328 12.7656C102.651 11.7448 103.078 10.8646 103.609 10.125C104.141 9.375 104.786 8.79688 105.547 8.39062C106.318 7.98438 107.219 7.78125 108.25 7.78125C109.323 7.78125 110.266 7.98438 111.078 8.39062C111.901 8.79688 112.594 9.38021 113.156 10.1406C113.719 10.901 114.141 11.8073 114.422 12.8594C114.703 13.9115 114.844 15.0833 114.844 16.375ZM110.703 16.7031V16.375C110.703 15.625 110.635 14.9323 110.5 14.2969C110.365 13.651 110.156 13.0885 109.875 12.6094C109.594 12.1198 109.229 11.7396 108.781 11.4688C108.333 11.1979 107.792 11.0625 107.156 11.0625C106.521 11.0625 105.974 11.1667 105.516 11.375C105.057 11.5833 104.682 11.8802 104.391 12.2656C104.099 12.651 103.87 13.1094 103.703 13.6406C103.547 14.1615 103.443 14.7396 103.391 15.375V17.9688C103.484 18.7396 103.667 19.4323 103.938 20.0469C104.208 20.6615 104.604 21.151 105.125 21.5156C105.656 21.8802 106.344 22.0625 107.188 22.0625C107.823 22.0625 108.365 21.9219 108.812 21.6406C109.26 21.3594 109.625 20.974 109.906 20.4844C110.188 19.9844 110.391 19.4115 110.516 18.7656C110.641 18.1198 110.703 17.4323 110.703 16.7031Z" fill="#080808"/>
<rect x="70" y="12" width="26" height="14" fill="#080808"/>
<path d="M79.7071 8.29289C79.8946 8.10536 80.149 8 80.4142 8H85.5858C85.851 8 86.1054 8.10536 86.2929 8.29289L90 12H76L79.7071 8.29289Z" fill="#080808"/>
<circle cx="83" cy="19" r="6" fill="#ECECEC"/>
<circle cx="83" cy="19" r="4.5" stroke="black"/>
</svg>
