<svg width="96" height="96" viewBox="0 0 96 96" fill="none" xmlns="http://www.w3.org/2000/svg">
<g clip-path="url(#clip0_766_88)">
<path d="M43.5261 0.0594971C43.5261 0.0892077 43.3107 1.35191 43.0433 2.85973C42.7759 4.37497 42.3377 6.87809 42.0703 8.43048C41.7955 9.98286 41.5652 11.2604 41.5578 11.2753C41.5504 11.2827 41.1047 11.3793 40.5699 11.4758C38.8393 11.8101 37.1012 12.278 35.4374 12.8648C34.6204 13.147 34.5906 13.1545 34.4644 13.0208C34.3975 12.9465 32.7932 11.0302 30.8991 8.76473C29.005 6.49929 27.4081 4.58295 27.3338 4.50867C27.215 4.3824 27.0516 4.47153 23.7982 6.35073C21.9265 7.43517 20.3815 8.34878 20.3667 8.38592C20.3518 8.42306 21.2208 10.8519 22.2904 13.7858L24.2365 19.1115L23.9394 19.3789C21.7928 21.3175 21.466 21.6369 19.3788 23.9469L19.1114 24.2366L13.8823 22.3276C11.0078 21.2729 8.57896 20.4113 8.48982 20.4039C8.3487 20.389 8.05902 20.857 6.35066 23.7983C4.47146 27.0516 4.38232 27.215 4.50859 27.3339C4.58287 27.4082 6.51406 29.0274 8.80179 30.9363C11.0895 32.8452 13.0058 34.4496 13.0578 34.4942C13.1321 34.5684 13.095 34.7541 12.8573 35.4375C12.2259 37.287 11.81 38.8245 11.4832 40.5477C11.3792 41.0974 11.2826 41.5504 11.2752 41.5579C11.2603 41.5653 9.98278 41.7956 8.4304 42.0704C6.87802 42.3378 4.3749 42.776 2.85965 43.0434C1.35184 43.3108 0.089132 43.5262 0.0594213 43.5262C0.0297107 43.5262 0 45.3311 0 47.5371C0 49.7432 0.0297107 51.5481 0.0594213 51.5481C0.089132 51.5481 1.35184 51.7635 2.85965 52.0309C4.3749 52.2983 6.87802 52.7365 8.4304 53.0039C9.98278 53.2787 11.2603 53.509 11.2752 53.5164C11.2826 53.5238 11.3792 53.9769 11.4832 54.5266C11.81 56.2498 12.2259 57.7873 12.8573 59.6368C13.095 60.3202 13.1321 60.5059 13.0578 60.5801C13.0058 60.6247 11.0895 62.2291 8.80179 64.138C6.51406 66.0469 4.58287 67.6661 4.50859 67.7404C4.38232 67.8592 4.47146 68.0227 6.35066 71.276C8.05902 74.2173 8.3487 74.6853 8.48982 74.6704C8.57896 74.663 11.0078 73.8014 13.8823 72.7467L19.1114 70.8377L19.3788 71.1274C21.466 73.4374 21.7928 73.7568 23.9394 75.6954L24.2365 75.9628L22.2904 81.2885C21.2208 84.2224 20.3518 86.6512 20.3667 86.6884C20.3815 86.7255 21.9265 87.6391 23.7982 88.7236C27.0516 90.6028 27.215 90.6919 27.3338 90.5656C27.4081 90.4913 29.005 88.575 30.8991 86.3096C32.7932 84.0441 34.3975 82.1278 34.4644 82.0535C34.5906 81.9198 34.6204 81.9272 35.4374 82.2095C37.1012 82.7963 38.8393 83.2642 40.5699 83.5985C41.1047 83.695 41.5504 83.7916 41.5578 83.799C41.5652 83.8139 41.7955 85.0914 42.0703 86.6438C42.3377 88.1962 42.7759 90.6993 43.0433 92.2146C43.3107 93.7224 43.5261 94.9851 43.5261 95.0148C43.5261 95.0445 45.3236 95.0742 47.5222 95.0742H51.5183L51.9045 92.9053C52.1125 91.7095 52.5582 89.1767 52.8924 87.2752C53.2192 85.3737 53.5015 83.8139 53.5163 83.799C53.5238 83.7916 54.0289 83.6802 54.6379 83.5613C56.5245 83.19 57.7575 82.8631 59.6367 82.2169C60.3201 81.9792 60.5058 81.9421 60.5801 82.0164C60.6246 82.0684 62.229 83.9847 64.1379 86.2724C66.0468 88.5602 67.6661 90.4913 67.7403 90.5656C67.8592 90.6919 68.0226 90.6028 71.2759 88.7236C73.1477 87.6391 74.6926 86.7255 74.7075 86.6884C74.7223 86.6364 73.4968 83.2345 71.2536 77.1067L70.8302 75.9628L71.313 75.5469C72.9248 74.1356 74.1653 72.9026 75.5468 71.3131L75.9553 70.8377L77.3294 71.3354C82.5882 73.2666 86.614 74.7224 86.666 74.7224C86.7032 74.7224 87.3642 73.6305 88.1367 72.2936C88.9018 70.9492 89.7931 69.4116 90.1125 68.862C90.5804 68.0598 90.677 67.8444 90.6027 67.7775C90.5507 67.7255 88.6195 66.1063 86.3095 64.1751C83.9995 62.2439 82.0683 60.6247 82.0163 60.5801C81.942 60.5059 81.9792 60.3202 82.2168 59.6368C82.8408 57.8096 83.331 55.9898 83.6355 54.3483C83.7247 53.8729 83.8287 53.4793 83.8584 53.4793C83.8881 53.4793 85.5444 53.197 87.5425 52.8479C89.5405 52.4988 92.0288 52.0606 93.0687 51.8823C94.1086 51.6966 94.985 51.5481 95.0147 51.5481C95.0519 51.5481 95.0741 49.7432 95.0741 47.5371C95.0741 45.3311 95.0444 43.5262 95.0147 43.5262C94.985 43.5262 93.7372 43.3108 92.2516 43.0508C90.7587 42.7909 88.2481 42.3452 86.666 42.0704L83.7915 41.5653L83.6355 40.7111C83.331 39.0845 82.8408 37.2573 82.2168 35.4375C81.9792 34.7541 81.942 34.5684 82.0163 34.4942C82.0683 34.4496 83.9995 32.8304 86.3095 30.8992C88.6195 28.968 90.5507 27.3487 90.6027 27.2968C90.677 27.2299 90.5804 27.0145 90.1125 26.2123C89.7931 25.6627 88.9018 24.1251 88.1367 22.7807C87.3642 21.4438 86.7032 20.3519 86.666 20.3519C86.614 20.3519 82.5882 21.8077 77.3294 23.7389L75.9553 24.2366L75.5468 23.7612C74.1653 22.1717 72.9248 20.9387 71.313 19.5274L70.8302 19.1115L71.2536 17.9676C73.4968 11.8398 74.7223 8.43791 74.7075 8.38592C74.6926 8.34878 73.1477 7.43517 71.2759 6.35073C68.0226 4.47153 67.8592 4.3824 67.7403 4.50867C67.6661 4.58295 66.0468 6.51414 64.1379 8.80186C62.229 11.0896 60.6246 13.0059 60.5801 13.0579C60.5058 13.1322 60.3201 13.0951 59.6367 12.8574C57.7575 12.2112 56.5245 11.8843 54.6379 11.513C54.0289 11.3941 53.5238 11.2827 53.5163 11.2753C53.5015 11.2604 53.2192 9.70061 52.8924 7.79913C52.5582 5.89764 52.1125 3.36481 51.9045 2.16895L51.5183 7.53403e-05H47.5222C45.3236 7.53403e-05 43.5261 0.0297864 43.5261 0.0594971ZM49.0597 19.4903C54.0957 19.6685 59.4956 21.5477 63.8037 24.6154C69.5007 28.6634 73.4671 34.6501 74.9823 41.4465C75.4577 43.5931 75.6211 45.1826 75.6211 47.5371C75.6211 49.8917 75.4577 51.4812 74.9823 53.6278C72.7466 63.6849 65.1704 71.7291 55.2618 74.5664C52.3576 75.3983 49.4683 75.7251 46.2669 75.5989C34.2713 75.1235 23.8577 66.8936 20.5152 55.2619C19.6833 52.38 19.3491 49.4683 19.4753 46.267C19.8319 37.3167 24.5707 28.9903 32.1247 24.036C35.7939 21.6294 39.842 20.1588 44.3283 19.6091C45.0414 19.52 47.3365 19.4011 47.7228 19.4383C47.849 19.4457 48.4507 19.4754 49.0597 19.4903Z" fill="#CC1C28"/>
</g>
<defs>
<clipPath id="clip0_766_88">
<rect width="95.0741" height="95.0741" fill="white"/>
</clipPath>
</defs>
</svg>
