<svg width="164" height="61" viewBox="0 0 164 61" fill="none" xmlns="http://www.w3.org/2000/svg">
<path d="M22.5387 0H9.40934C4.21271 0 0 4.21712 0 9.41921V46.0008C0 51.2029 4.21271 55.42 9.40934 55.42H22.5387C27.7353 55.42 31.948 51.2029 31.948 46.0008V9.41921C31.948 4.21712 27.7353 0 22.5387 0Z" fill="#78BAF8"/>
<path d="M116.903 22.1734L150.622 5.07333C153.103 4.1657 158.935 3.07489 162 9C165.065 14.9251 160.913 20.2129 158.504 21.7377L145.367 31.2136L105 59C102.956 60.1617 97.1451 61.7883 89 59C80.8549 56.2117 53.4439 49.2312 41 46H32V9" fill="#EBCC9E"/>
<path d="M32 8.99992L39 8.99998L52 5.99992C57.5 5.00001 71.5 3.4999 86.4078 17.3756C99.3557 17.3756 106.602 17.3756 108.607 17.3756C111.742 17.5609 118 19.7961 118 27C118 34.2039 112.552 36.5924 110 37L76 37" fill="#EBCC9E"/>
<path d="M86.4078 17.3755C99.3557 17.3755 106.602 17.3755 108.607 17.3755C111.742 17.5608 118 19.796 118 26.9999C118 34.2038 112.552 36.5924 110 36.9999L76 36.9999" stroke="#ECECEC" stroke-width="2"/>
</svg>
