<svg width="74" height="50" viewBox="0 0 74 50" fill="none" xmlns="http://www.w3.org/2000/svg">
<path d="M74 40C74 45.5228 69.5228 50 64 50L32 50C26.4772 50 22 45.5229 22 40L22 31L74 31L74 40Z" fill="white"/>
<path d="M14 10C14 12.7614 11.7614 15 9 15L5 15C2.23858 15 7.91587e-07 12.7614 5.91642e-07 10L4.46829e-07 8L14 8L14 10Z" fill="white"/>
<rect x="29" y="8" width="5" height="23" fill="white"/>
<rect x="62" y="34" width="3" height="17" transform="rotate(90 62 34)" fill="#080808"/>
<rect x="71" y="34" width="3" height="6" transform="rotate(90 71 34)" fill="#080808"/>
<rect x="42" y="25" width="5" height="6" fill="white"/>
<rect x="51" y="25" width="5" height="6" fill="white"/>
<path d="M9 1C9 0.447715 9.44772 0 10 0V0C10.5523 0 11 0.447715 11 1V8H9V1Z" fill="white"/>
<path d="M3 1C3 0.447715 3.44772 0 4 0V0C4.55228 0 5 0.447715 5 1V8H3V1Z" fill="white"/>
<path d="M25 31C25 37.0751 20.9706 42 16 42C11.0294 42 7 37.0751 7 31" stroke="white" stroke-width="2"/>
<line x1="7" y1="30.9996" x2="7.00684" y2="13.9995" stroke="white" stroke-width="2"/>
</svg>
