<svg width="50" height="50" viewBox="0 0 50 50" fill="none" xmlns="http://www.w3.org/2000/svg">
<g clip-path="url(#clip0_102_10)">
<path fill-rule="evenodd" clip-rule="evenodd" d="M32.6049 13.0783C33.3746 13.0783 33.9989 13.7026 33.9989 14.4723L34 19.5235C34 19.8932 33.8528 20.2478 33.5916 20.5095C33.3299 20.7713 32.9752 20.918 32.6055 20.918H29.7419C29.4939 21.7258 29.168 22.4995 28.7779 23.2337L30.8065 25.2624C31.3505 25.8062 31.3505 26.6894 30.8065 27.234L27.2356 30.8049C26.974 31.0665 26.6192 31.2132 26.2496 31.2132C25.8799 31.2132 25.5253 31.0666 25.2635 30.8049L23.2359 28.7773C22.5011 29.1675 21.7276 29.4934 20.919 29.7418V32.6044C20.919 33.3747 20.2948 33.9988 19.5245 33.9988H14.4745C13.7048 33.9988 13.0805 33.3747 13.0805 32.6044V29.7418C12.2721 29.4934 11.4985 29.1675 10.7636 28.7773L8.73661 30.8043C8.19206 31.3489 7.30885 31.3489 6.76437 30.8043L3.1929 27.2329C2.64842 26.6884 2.64842 25.8052 3.1929 25.2607L5.22094 23.2325C4.8314 22.4989 4.50549 21.7259 4.25755 20.9179H1.39391C0.624227 20.9179 0 20.2937 0 19.5239V14.4728C0 13.7026 0.624227 13.0783 1.39398 13.0783H4.2582C4.50663 12.2709 4.83261 11.4979 5.22215 10.7641L3.19404 8.73596C2.65006 8.19206 2.65006 7.30778 3.19404 6.7638L6.76536 3.19233C7.30991 2.64842 8.19305 2.64842 8.73703 3.1929L10.7651 5.22101C11.4994 4.83204 12.2724 4.50606 13.0804 4.25763V1.39448C13.0804 0.624227 13.7046 0 14.4744 0H19.5243C20.2947 0 20.9189 0.624155 20.9189 1.39448V4.25755C21.7263 4.50606 22.4988 4.8314 23.2331 5.22044L25.2617 3.19183C25.8062 2.64735 26.6889 2.64735 27.2334 3.19183L30.8059 6.76273C31.0671 7.02449 31.2143 7.37919 31.2143 7.74885C31.2143 8.11851 31.0677 8.4732 30.8059 8.73497L28.7773 10.7636C29.1668 11.498 29.4927 12.2704 29.7412 13.0783H32.6049ZM17.3397 23.7995C21.2829 23.7995 24.4795 20.6029 24.4795 16.6597C24.4795 12.7166 21.2829 9.52 17.3397 9.52C13.3966 9.52 10.2 12.7166 10.2 16.6597C10.2 20.6029 13.3966 23.7995 17.3397 23.7995Z" fill="white"/>
<path fill-rule="evenodd" clip-rule="evenodd" d="M47.5428 34.0256C48.0021 33.9025 48.4743 34.1752 48.5973 34.6344L49.4055 37.6478C49.4646 37.8683 49.4334 38.1035 49.3194 38.3013C49.2052 38.4993 49.017 38.6435 48.7965 38.7026L47.088 39.1604C47.0692 39.682 46.9985 40.1957 46.8831 40.6961L48.4177 41.5821C48.8291 41.8196 48.9703 42.3465 48.7328 42.7584L47.1733 45.4596C47.059 45.6575 46.8708 45.8017 46.6503 45.8608C46.4297 45.9199 46.1947 45.8892 45.9967 45.7749L44.4629 44.8893C44.0869 45.2396 43.6775 45.5577 43.2348 45.8351L43.6925 47.543C43.8156 48.0025 43.5429 48.4747 43.0834 48.5978L40.0705 49.4051C39.6113 49.5281 39.1391 49.2556 39.016 48.796L38.5584 47.0882C38.0363 47.0693 37.5227 46.9984 37.0219 46.8831L36.1366 48.4165C35.8988 48.8284 35.3719 48.9696 34.96 48.7318L32.2583 47.172C31.8464 46.9342 31.7053 46.4073 31.943 45.9954L32.8288 44.4612C32.4791 44.0858 32.1611 43.6767 31.884 43.2343L30.1755 43.692C29.7163 43.8151 29.2441 43.5425 29.1211 43.0832L28.3136 40.0697C28.1905 39.6102 28.4631 39.138 28.9223 39.0149L30.6311 38.557C30.6503 38.0356 30.7212 37.5224 30.8363 37.0223L29.3021 36.1365C28.8906 35.899 28.7492 35.3714 28.9868 34.9599L30.5466 32.2583C30.7845 31.8467 31.3114 31.7055 31.7229 31.9434L33.2571 32.8292C33.633 32.4797 34.0421 32.1617 34.4844 31.8843L34.0267 30.1761C33.9036 29.7166 34.1762 29.2444 34.6354 29.1214L37.6483 28.3141C38.1078 28.1909 38.58 28.4635 38.7032 28.9231L39.1609 30.6312C39.6823 30.6504 40.1952 30.721 40.6954 30.8357L41.5814 29.3012C41.8193 28.8893 42.3458 28.7482 42.7578 28.986L45.4599 30.5453C45.6576 30.6597 45.8022 30.8478 45.8613 31.0683C45.9204 31.2888 45.8896 31.5239 45.7752 31.7219L44.8892 33.2565C45.239 33.6324 45.557 34.0411 45.8344 34.4834L47.5428 34.0256ZM40.1495 42.8621C42.502 42.2318 43.898 39.8137 43.2677 37.4612C42.6373 35.1087 40.2193 33.7126 37.8668 34.343C35.5143 34.9733 34.1182 37.3914 34.7485 39.7439C35.3789 42.0964 37.797 43.4925 40.1495 42.8621Z" fill="white"/>
</g>
<defs>
<clipPath id="clip0_102_10">
<rect width="50" height="50" fill="white"/>
</clipPath>
</defs>
</svg>
