<svg width="60" height="50" viewBox="0 0 60 50" fill="none" xmlns="http://www.w3.org/2000/svg">
<rect x="0.5" y="10.5" width="59" height="39" rx="9.5" stroke="white"/>
<path d="M24 10.5H11.8913L17.9996 0.5H24H30.0004L36.1087 10.5H24Z" stroke="white"/>
<circle cx="24" cy="30" r="14.5" stroke="white"/>
<circle cx="24" cy="30" r="10" fill="white"/>
<path d="M17 34C19.8424 32.359 20.1019 32.2092 23.9282 30C27.7546 27.7909 28.547 27.3334 30.8564 26C33.0656 29.8264 31.7546 34.7191 27.9282 36.9282C24.1019 39.1374 19.2092 37.8264 17 34Z" fill="#080808"/>
<path d="M48 21C48 18.7909 49.7909 17 52 17H55V44H52C49.7909 44 48 42.2091 48 40V21Z" fill="white"/>
<path d="M51 36C51 35.4477 51.4477 35 52 35H55V37H52C51.4477 37 51 36.5523 51 36V36Z" fill="#080808"/>
<path d="M51 32C51 31.4477 51.4477 31 52 31H55V33H52C51.4477 33 51 32.5523 51 32V32Z" fill="#080808"/>
<path d="M51 28C51 27.4477 51.4477 27 52 27H55V29H52C51.4477 29 51 28.5523 51 28V28Z" fill="#080808"/>
<path d="M51 24C51 23.4477 51.4477 23 52 23H55V25H52C51.4477 25 51 24.5523 51 24V24Z" fill="#080808"/>
<rect x="19" y="3" width="10" height="4" rx="2" fill="white"/>
</svg>
