<svg width="73" height="73" viewBox="0 0 73 73" fill="none" xmlns="http://www.w3.org/2000/svg">
<path d="M72.9976 31.0729C72.9976 29.4202 71.6573 28.0799 70.0046 28.0799H63.8562C63.3226 26.3452 62.6227 24.6868 61.7865 23.11L66.1421 18.7545C66.7041 18.1925 67.019 17.4309 67.019 16.6372C67.019 15.8435 66.7029 15.082 66.1421 14.52L58.4718 6.85305C57.3026 5.68402 55.4075 5.68402 54.2383 6.85305L49.8828 11.2086C48.3063 10.3733 46.6476 9.67478 44.9141 9.14122V2.99403C44.9141 1.3401 43.5738 0 41.9199 0H31.0773C29.4246 0 28.0844 1.34025 28.0844 2.99403V9.14137C26.3497 9.67478 24.6899 10.3747 23.1132 11.2098L18.7589 6.85534C17.591 5.68631 15.6948 5.68631 14.5256 6.85412L6.85779 14.5223C5.68983 15.6902 5.68983 17.5888 6.85779 18.7566L11.2123 23.1111C10.3759 24.6867 9.676 26.3463 9.1426 28.0798H2.99296C1.34025 28.0799 0 29.4202 0 31.074V41.919C0 43.5717 1.34025 44.912 2.9928 44.912H9.14122C9.67356 46.6467 10.3733 48.3064 11.2097 49.8816L6.85534 54.2362C5.68631 55.4054 5.68631 57.3017 6.85534 58.4705L14.5235 66.1387C15.6925 67.3079 17.5888 67.3079 18.758 66.1387L23.1102 61.7865C24.6879 62.6243 26.3489 63.3242 28.0847 63.8574V70.0035C28.0847 71.6575 29.4249 72.9974 31.0776 72.9974H41.9202C43.5742 72.9974 44.9144 71.6575 44.9144 70.0035V63.8574C46.6503 63.324 48.3112 62.6243 49.8889 61.7865L54.2423 66.1399C54.8043 66.7018 55.5657 67.0165 56.3594 67.0165C57.1531 67.0165 57.9148 66.7016 58.4765 66.1399L66.1434 58.473C67.3114 57.3038 67.3114 55.4075 66.1434 54.2399L61.7879 49.8842C62.6255 48.3077 63.3252 46.6467 63.8576 44.9121H70.006C70.7997 44.9121 71.5614 44.5972 72.1231 44.0352C72.6839 43.4733 73 42.7118 73 41.9181L72.9976 31.0729Z" fill="#8B8B8B"/>
<path d="M28.1768 69.9633V63.8171V53.4868C21.9127 50.3785 17.5967 43.9132 17.5967 36.4585C17.5967 29.0047 21.9127 22.5398 28.1768 19.4316V34.3879C28.1768 34.3879 28.1768 42.2682 36.5917 42.2682C45.0066 42.2682 45.0066 34.3879 45.0066 34.3879V19.4319C51.2708 22.5402 55.5866 29.005 55.5866 36.4585C55.5866 43.9129 51.2708 50.378 45.0066 53.4864V63.8171V69.9633C45.0066 71.6172 43.6663 72.9571 42.0124 72.9571H31.1698C29.5171 72.9571 28.1768 71.6172 28.1768 69.9633Z" fill="#C4C4C4"/>
</svg>
