<svg width="23" height="20" viewBox="0 0 23 20" fill="none" xmlns="http://www.w3.org/2000/svg">
<path d="M22.9896 5.95007C22.9047 4.3641 22.2336 2.87476 21.0997 1.75638C19.9513 0.62378 18.4528 0 16.8804 0C14.5403 0 12.8442 1.85133 11.9331 2.846C11.7924 2.99961 11.6276 3.17954 11.5128 3.28932C11.421 3.19422 11.2965 3.05241 11.182 2.92201C10.3499 1.97359 8.61807 7.60383e-05 6.12021 7.60383e-05C4.54779 7.60383e-05 3.04935 0.623856 1.90098 1.75646C0.766979 2.87476 0.095734 4.36403 0.0108779 5.95007C-0.0735981 7.53345 0.331141 8.91118 1.32326 10.4175C2.10825 11.6096 4.17803 13.9374 6.35646 16.0785C7.47852 17.1812 8.51124 18.1158 9.34292 18.7811C10.6935 19.8615 11.2107 20 11.5104 20C11.7914 20 12.3227 19.8739 13.6862 18.7842C14.516 18.121 15.5451 17.1879 16.6624 16.0858C18.8213 13.9563 20.8836 11.6253 21.6775 10.4173C22.3452 9.40106 23.0977 7.97509 22.9896 5.95007Z" fill="#A4A4A4"/>
</svg>
