<svg width="36" height="36" viewBox="0 0 36 36" fill="none" xmlns="http://www.w3.org/2000/svg">
<path d="M1.70711 0.292893C1.31658 -0.0976311 0.683418 -0.0976311 0.292893 0.292893C-0.0976311 0.683418 -0.0976311 1.31658 0.292893 1.70711L1.70711 0.292893ZM34.2929 35.7071C34.6834 36.0976 35.3166 36.0976 35.7071 35.7071C36.0976 35.3166 36.0976 34.6834 35.7071 34.2929L34.2929 35.7071ZM0.292893 1.70711L34.2929 35.7071L35.7071 34.2929L1.70711 0.292893L0.292893 1.70711Z" fill="#ECECEC"/>
<path d="M34.2929 0.292893C34.6834 -0.0976311 35.3166 -0.0976311 35.7071 0.292893C36.0976 0.683418 36.0976 1.31658 35.7071 1.70711L34.2929 0.292893ZM1.70711 35.7071C1.31658 36.0976 0.683417 36.0976 0.292893 35.7071C-0.0976311 35.3166 -0.0976311 34.6834 0.292893 34.2929L1.70711 35.7071ZM35.7071 1.70711L1.70711 35.7071L0.292893 34.2929L34.2929 0.292893L35.7071 1.70711Z" fill="#ECECEC"/>
</svg>
