<svg width="208" height="252" viewBox="0 0 208 252" fill="none" xmlns="http://www.w3.org/2000/svg">
<path d="M17.9862 34.0029L41.0042 8.42741C41.3835 8.00599 41.9238 7.76534 42.4908 7.76534H77.6473C78.0141 7.76534 78.3738 7.66446 78.6871 7.47374L89.4841 0.901678C90.3341 0.384268 91.4353 0.570498 92.0679 1.33866L137.101 56.0222C137.396 56.3803 137.557 56.8297 137.557 57.2936V74.8801V114.48C137.557 115.585 138.453 116.48 139.557 116.48H140.894C142.077 116.48 143.002 117.502 142.884 118.679L140.385 143.676C140.349 144.028 140.221 144.364 140.014 144.651L124.844 165.574C124.468 166.093 123.866 166.4 123.225 166.4H104.533C103.71 166.4 102.971 166.905 102.671 167.671L98.9034 177.299C98.5015 178.326 97.3439 178.834 96.316 178.434L78.9461 171.679C78.472 171.495 77.9455 171.498 77.4736 171.688L41.6897 186.109C41.2724 186.277 40.924 186.581 40.7007 186.971L32.7465 200.891C32.3905 201.514 31.7278 201.899 31.0101 201.899H5.19518C3.77425 201.899 2.80652 200.459 3.34348 199.143L13.1637 175.084C13.2616 174.844 13.312 174.587 13.312 174.328V153.069C13.312 152.718 13.4043 152.374 13.5796 152.07L29.4852 124.5C29.7811 123.987 29.8345 123.37 29.631 122.813L21.9632 101.855C21.754 101.283 21.2954 100.837 20.7175 100.645L14.1595 98.4586C13.6202 98.2788 13.1829 97.8781 12.9568 97.3564L6.55094 82.5736C6.27196 81.9298 6.35076 81.1869 6.75859 80.6159L8.69063 77.9111C8.81257 77.7404 8.96061 77.5899 9.12932 77.4652L21.1021 68.6157C21.4463 68.3614 21.863 68.2241 22.2909 68.2241H26.998C28.4129 68.2241 29.3804 66.795 28.8549 65.4813L27.7334 62.6774L21.7873 40.5146C21.686 40.1372 21.4764 39.7977 21.1843 39.5381L18.1441 36.8357C17.3149 36.0986 17.2441 34.8275 17.9862 34.0029Z" fill="#78D0A9"/>
<path d="M38.8267 229.078H14.1404C13.61 229.078 13.1013 229.288 12.7262 229.663L1.49496 240.895C0.683083 241.707 0.719922 243.034 1.57559 243.799L9.96922 251.309C10.3359 251.638 10.8107 251.819 11.3028 251.819H35.7304C36.2897 251.819 36.8235 251.585 37.2023 251.173L48.3335 239.074C48.943 238.411 49.0347 237.423 48.5576 236.66L44.4062 230.018C44.0407 229.433 43.3998 229.078 42.7102 229.078H38.8267Z" fill="#78D0A9"/>
<path d="M170.335 189.188L166.503 176.839C166.177 175.787 166.963 174.72 168.064 174.72H180.04C180.542 174.72 181.027 174.91 181.396 175.251L186.799 180.237C187.512 180.896 187.649 181.972 187.124 182.789L183.539 188.366C183.222 188.858 182.706 189.187 182.127 189.266L172.516 190.577C171.547 190.709 170.625 190.121 170.335 189.188Z" fill="#78D0A9"/>
<path d="M201.682 193.728L199.935 199.407C199.772 199.935 199.836 200.507 200.11 200.987L200.6 201.844C201.254 202.989 202.818 203.199 203.75 202.266L207.414 198.602C207.79 198.227 208 197.718 208 197.188V192.785C208 191.207 206.258 190.25 204.926 191.098L202.52 192.629C202.119 192.884 201.822 193.274 201.682 193.728Z" fill="#78D0A9"/>
</svg>
